<svg xmlns="http://www.w3.org/2000/svg" xmlns:xlink="http://www.w3.org/1999/xlink" width="2232" height="626pt" viewBox="0 0 1674.2 626"><g id="graph0" class="graph" transform="scale(1 1) rotate(0) translate(4 622)"><title>G</title><polygon fill="#fff" stroke="none" points="-4 4 -4 -622 1670.2 -622 1670.2 4 -4 4"/><g id="node1" class="node"><title>n</title><polygon fill="#add8e6" stroke="none" points="90 -618 36 -618 36 -582 90 -582 90 -618"/><text x="63" y="-602.8" font-family="Times,serif" font-size="14" text-anchor="middle">20</text><text x="63" y="-588.8" font-family="Times,serif" font-size="14" text-anchor="middle">N</text></g><g id="node2" class="node"><title>n1</title><polygon fill="#add8e6" stroke="none" points="54 -42 0 -42 0 0 54 0 54 -42"/><text x="27" y="-30.8" font-family="Times,serif" font-size="14" text-anchor="middle">(X|X)</text><text x="27" y="-16.8" font-family="Times,serif" font-size="14" text-anchor="middle">identity</text><text x="27" y="-2.8" font-family="Times,serif" font-size="14" text-anchor="middle">what</text></g><g id="edge1" class="edge"><title>n-&gt;n1</title><path fill="none" stroke="#000" d="M55.7149,-581.867C45.1956,-555.531 27,-503.288 27,-457 27,-457 27,-457 27,-167 27,-127.316 27,-81.5232 27,-52.1925"/><polygon fill="#000" stroke="#000" points="30.5 -52.173 27 -42.173 23.5 -52.173 30.5 -52.173"/></g><g id="node3" class="node"><title>n2</title><polygon fill="#add8e6" stroke="none" points="126 -546 72 -546 72 -510 126 -510 126 -546"/><text x="99" y="-530.8" font-family="Times,serif" font-size="14" text-anchor="middle">20</text><text x="99" y="-516.8" font-family="Times,serif" font-size="14" text-anchor="middle">N</text></g><g id="edge2" class="edge"><title>n-&gt;n2</title><path fill="none" stroke="#000" d="M71.8989,-581.697C75.9968,-573.728 80.9488,-564.1 85.4927,-555.264"/><polygon fill="#000" stroke="#000" points="88.743 -556.598 90.204 -546.104 82.517 -553.396 88.743 -556.598"/></g><g id="node5" class="node"><title>n21</title><polygon fill="#add8e6" stroke="none" points="126 -42 72 -42 72 0 126 0 126 -42"/><text x="99" y="-30.8" font-family="Times,serif" font-size="14" text-anchor="middle">(X|X)</text><text x="99" y="-16.8" font-family="Times,serif" font-size="14" text-anchor="middle">identity</text><text x="99" y="-2.8" font-family="Times,serif" font-size="14" text-anchor="middle">is</text></g><g id="edge3" class="edge"><title>n2-&gt;n21</title><path fill="none" stroke="#000" d="M99,-509.951C99,-483.292 99,-430.115 99,-385 99,-385 99,-385 99,-167 99,-127.316 99,-81.5232 99,-52.1925"/><polygon fill="#000" stroke="#000" points="102.5 -52.173 99 -42.173 95.5 -52.173 102.5 -52.173"/></g><g id="node6" class="node"><title>n22</title><polygon fill="#add8e6" stroke="none" points="564 -474 510 -474 510 -438 564 -438 564 -474"/><text x="537" y="-458.8" font-family="Times,serif" font-size="14" text-anchor="middle">20</text><text x="537" y="-444.8" font-family="Times,serif" font-size="14" text-anchor="middle">N</text></g><g id="edge4" class="edge"><title>n2-&gt;n22</title><path fill="none" stroke="#000" d="M126.068,-522.674C201.356,-510.642 413.358,-476.76 499.703,-462.961"/><polygon fill="#000" stroke="#000" points="500.51 -466.376 509.833 -461.342 499.406 -459.464 500.51 -466.376"/></g><g id="node4" class="node"><title>tokens</title><ellipse cx="1633" cy="-21" fill="none" stroke="#000" rx="33.392" ry="18"/><text x="1633" y="-16.8" font-family="Times,serif" font-size="14" text-anchor="middle">tokens</text></g><g id="node7" class="node"><title>n221</title><polygon fill="#add8e6" stroke="none" points="564 -330 510 -330 510 -294 564 -294 564 -330"/><text x="537" y="-314.8" font-family="Times,serif" font-size="14" text-anchor="middle">5</text><text x="537" y="-300.8" font-family="Times,serif" font-size="14" text-anchor="middle">N</text></g><g id="edge5" class="edge"><title>n22-&gt;n221</title><path fill="none" stroke="#000" d="M537,-437.871C537,-413.67 537,-369.211 537,-340.393"/><polygon fill="#000" stroke="#000" points="540.5 -340.189 537 -330.189 533.5 -340.189 540.5 -340.189"/></g><g id="node8" class="node"><title>n222</title><polygon fill="#add8e6" stroke="none" points="898.75 -402 757.25 -402 757.25 -366 898.75 -366 898.75 -402"/><text x="828" y="-386.8" font-family="Times,serif" font-size="14" text-anchor="middle">λ(x: Int =&gt; x.*(4))</text><text x="828" y="-372.8" font-family="Times,serif" font-size="14" text-anchor="middle">(N\N)</text></g><g id="edge6" class="edge"><title>n22-&gt;n222</title><path fill="none" stroke="#000" d="M564.115,-448.477C605.481,-438.527 685.998,-419.158 747.266,-404.421"/><polygon fill="#000" stroke="#000" points="748.405 -407.746 757.309 -402.005 746.768 -400.941 748.405 -407.746"/></g><g id="node9" class="node"><title>n2211</title><polygon fill="#add8e6" stroke="none" points="357 -258 303 -258 303 -222 357 -222 357 -258"/><text x="330" y="-242.8" font-family="Times,serif" font-size="14" text-anchor="middle">5</text><text x="330" y="-228.8" font-family="Times,serif" font-size="14" text-anchor="middle">Paren</text></g><g id="edge7" class="edge"><title>n221-&gt;n2211</title><path fill="none" stroke="#000" d="M509.938,-301.849C473.289,-289.455 407.748,-267.292 366.694,-253.409"/><polygon fill="#000" stroke="#000" points="367.663 -250.041 357.068 -250.154 365.42 -256.673 367.663 -250.041"/></g><g id="node10" class="node"><title>n2212</title><polygon fill="#add8e6" stroke="none" points="685.701 -42 630.299 -42 630.299 0 685.701 0 685.701 -42"/><text x="658" y="-30.8" font-family="Times,serif" font-size="14" text-anchor="middle">(N\Paren)</text><text x="658" y="-16.8" font-family="Times,serif" font-size="14" text-anchor="middle">identity</text><text x="658" y="-2.8" font-family="Times,serif" font-size="14" text-anchor="middle">)</text></g><g id="edge8" class="edge"><title>n221-&gt;n2212</title><path fill="none" stroke="#000" d="M544.207,-293.787C564.207,-246.017 620.578,-111.379 645.679,-51.4289"/><polygon fill="#000" stroke="#000" points="648.934 -52.715 649.568 -42.139 642.478 -50.011 648.934 -52.715"/></g><g id="node17" class="node"><title>n2221</title><polygon fill="#add8e6" stroke="none" points="952.676 -42 703.324 -42 703.324 0 952.676 0 952.676 -42"/><text x="828" y="-30.8" font-family="Times,serif" font-size="14" text-anchor="middle">((N\N)/N)</text><text x="828" y="-16.8" font-family="Times,serif" font-size="14" text-anchor="middle">λ(y: Int =&gt; λ(x: Int =&gt; x.*(y)))</text><text x="828" y="-2.8" font-family="Times,serif" font-size="14" text-anchor="middle">*</text></g><g id="edge15" class="edge"><title>n222-&gt;n2221</title><path fill="none" stroke="#000" d="M828,-365.951C828,-339.292 828,-286.115 828,-241 828,-241 828,-241 828,-167 828,-127.316 828,-81.5232 828,-52.1925"/><polygon fill="#000" stroke="#000" points="831.5 -52.173 828 -42.173 824.5 -52.173 831.5 -52.173"/></g><g id="node18" class="node"><title>n2222</title><polygon fill="#add8e6" stroke="none" points="1061 -330 1007 -330 1007 -294 1061 -294 1061 -330"/><text x="1034" y="-314.8" font-family="Times,serif" font-size="14" text-anchor="middle">4</text><text x="1034" y="-300.8" font-family="Times,serif" font-size="14" text-anchor="middle">N</text></g><g id="edge16" class="edge"><title>n222-&gt;n2222</title><path fill="none" stroke="#000" d="M878.13,-365.966C914.826,-353.496 963.806,-336.852 996.994,-325.575"/><polygon fill="#000" stroke="#000" points="998.414 -328.789 1006.76 -322.258 996.162 -322.161 998.414 -328.789"/></g><g id="node11" class="node"><title>n22111</title><polygon fill="#add8e6" stroke="none" points="199.701 -42 144.299 -42 144.299 0 199.701 0 199.701 -42"/><text x="172" y="-30.8" font-family="Times,serif" font-size="14" text-anchor="middle">(Paren/N)</text><text x="172" y="-16.8" font-family="Times,serif" font-size="14" text-anchor="middle">identity</text><text x="172" y="-2.8" font-family="Times,serif" font-size="14" text-anchor="middle">(</text></g><g id="edge9" class="edge"><title>n2211-&gt;n22111</title><path fill="none" stroke="#000" d="M317.602,-221.972C290.538,-184.802 225.932,-96.071 192.629,-50.3325"/><polygon fill="#000" stroke="#000" points="195.314 -48.074 186.599 -42.05 189.655 -52.194 195.314 -48.074"/></g><g id="node12" class="node"><title>n22112</title><polygon fill="#add8e6" stroke="none" points="357 -186 303 -186 303 -150 357 -150 357 -186"/><text x="330" y="-170.8" font-family="Times,serif" font-size="14" text-anchor="middle">5</text><text x="330" y="-156.8" font-family="Times,serif" font-size="14" text-anchor="middle">N</text></g><g id="edge10" class="edge"><title>n2211-&gt;n22112</title><path fill="none" stroke="#000" d="M330,-221.697C330,-213.983 330,-204.712 330,-196.112"/><polygon fill="#000" stroke="#000" points="333.5 -196.104 330 -186.104 326.5 -196.104 333.5 -196.104"/></g><g id="node13" class="node"><title>n221121</title><polygon fill="#add8e6" stroke="none" points="272 -42 218 -42 218 0 272 0 272 -42"/><text x="245" y="-30.8" font-family="Times,serif" font-size="14" text-anchor="middle">N</text><text x="245" y="-16.8" font-family="Times,serif" font-size="14" text-anchor="middle">2</text><text x="245" y="-2.8" font-family="Times,serif" font-size="14" text-anchor="middle">2</text></g><g id="edge11" class="edge"><title>n22112-&gt;n221121</title><path fill="none" stroke="#000" d="M319.916,-149.797C305.648,-125.459 279.381,-80.6503 262.051,-51.0869"/><polygon fill="#000" stroke="#000" points="265.059 -49.298 256.983 -42.441 259.02 -52.838 265.059 -49.298"/></g><g id="node14" class="node"><title>n221122</title><polygon fill="#add8e6" stroke="none" points="486.146 -114 343.854 -114 343.854 -78 486.146 -78 486.146 -114"/><text x="415" y="-98.8" font-family="Times,serif" font-size="14" text-anchor="middle">λ(x: Int =&gt; x.+(3))</text><text x="415" y="-84.8" font-family="Times,serif" font-size="14" text-anchor="middle">(N\N)</text></g><g id="edge12" class="edge"><title>n22112-&gt;n221122</title><path fill="none" stroke="#000" d="M351.011,-149.697C361.716,-140.881 374.89,-130.032 386.496,-120.474"/><polygon fill="#000" stroke="#000" points="388.736 -123.163 394.23 -114.104 384.286 -117.76 388.736 -123.163"/></g><g id="node15" class="node"><title>n2211221</title><polygon fill="#add8e6" stroke="none" points="540.072 -42 289.928 -42 289.928 0 540.072 0 540.072 -42"/><text x="415" y="-30.8" font-family="Times,serif" font-size="14" text-anchor="middle">((N\N)/N)</text><text x="415" y="-16.8" font-family="Times,serif" font-size="14" text-anchor="middle">λ(y: Int =&gt; λ(x: Int =&gt; x.+(y)))</text><text x="415" y="-2.8" font-family="Times,serif" font-size="14" text-anchor="middle">+</text></g><g id="edge13" class="edge"><title>n221122-&gt;n2211221</title><path fill="none" stroke="#000" d="M415,-77.7C415,-70.0864 415,-60.9147 415,-52.2311"/><polygon fill="#000" stroke="#000" points="418.5 -52.018 415 -42.019 411.5 -52.019 418.5 -52.018"/></g><g id="node16" class="node"><title>n2211222</title><polygon fill="#add8e6" stroke="none" points="612 -42 558 -42 558 0 612 0 612 -42"/><text x="585" y="-30.8" font-family="Times,serif" font-size="14" text-anchor="middle">N</text><text x="585" y="-16.8" font-family="Times,serif" font-size="14" text-anchor="middle">3</text><text x="585" y="-2.8" font-family="Times,serif" font-size="14" text-anchor="middle">3</text></g><g id="edge14" class="edge"><title>n221122-&gt;n2211222</title><path fill="none" stroke="#000" d="M462.46,-77.9566C486.154,-69.0556 515.314,-57.513 548.278,-42.1106"/><polygon fill="#000" stroke="#000" points="550.134 -45.105 557.675 -37.663 547.139 -38.777 550.134 -45.105"/></g><g id="node19" class="node"><title>n22221</title><polygon fill="#add8e6" stroke="none" points="1061 -258 1007 -258 1007 -222 1061 -222 1061 -258"/><text x="1034" y="-242.8" font-family="Times,serif" font-size="14" text-anchor="middle">4</text><text x="1034" y="-228.8" font-family="Times,serif" font-size="14" text-anchor="middle">Paren</text></g><g id="edge17" class="edge"><title>n2222-&gt;n22221</title><path fill="none" stroke="#000" d="M1034,-293.697C1034,-285.983 1034,-276.712 1034,-268.112"/><polygon fill="#000" stroke="#000" points="1037.5 -268.104 1034 -258.104 1030.5 -268.104 1037.5 -268.104"/></g><g id="node20" class="node"><title>n22222</title><polygon fill="#add8e6" stroke="none" points="1509.7 -114 1454.3 -114 1454.3 -78 1509.7 -78 1509.7 -114"/><text x="1482" y="-98.8" font-family="Times,serif" font-size="14" text-anchor="middle">identity</text><text x="1482" y="-84.8" font-family="Times,serif" font-size="14" text-anchor="middle">(N\Paren)</text></g><g id="edge18" class="edge"><title>n2222-&gt;n22222</title><path fill="none" stroke="#000" d="M1061.02,-298.095C1137.86,-261.389 1357.75,-156.352 1445.34,-114.51"/><polygon fill="#000" stroke="#000" points="1446.86 -117.663 1454.38 -110.194 1443.85 -111.346 1446.86 -117.663"/></g><g id="node21" class="node"><title>n222211</title><polygon fill="#add8e6" stroke="none" points="1025.7 -42 970.299 -42 970.299 0 1025.7 0 1025.7 -42"/><text x="998" y="-30.8" font-family="Times,serif" font-size="14" text-anchor="middle">(Paren/N)</text><text x="998" y="-16.8" font-family="Times,serif" font-size="14" text-anchor="middle">identity</text><text x="998" y="-2.8" font-family="Times,serif" font-size="14" text-anchor="middle">(</text></g><g id="edge19" class="edge"><title>n22221-&gt;n222211</title><path fill="none" stroke="#000" d="M1031.18,-221.972C1025.09,-185.266 1010.65,-98.2767 1002.99,-52.064"/><polygon fill="#000" stroke="#000" points="1006.42 -51.342 1001.33 -42.05 999.51 -52.488 1006.42 -51.342"/></g><g id="node22" class="node"><title>n222212</title><polygon fill="#add8e6" stroke="none" points="1098 -186 1044 -186 1044 -150 1098 -150 1098 -186"/><text x="1071" y="-170.8" font-family="Times,serif" font-size="14" text-anchor="middle">4</text><text x="1071" y="-156.8" font-family="Times,serif" font-size="14" text-anchor="middle">N</text></g><g id="edge20" class="edge"><title>n22221-&gt;n222212</title><path fill="none" stroke="#000" d="M1043.15,-221.697C1047.4,-213.644 1052.56,-203.894 1057.27,-194.982"/><polygon fill="#000" stroke="#000" points="1060.38 -196.581 1061.96 -186.104 1054.19 -193.31 1060.38 -196.581"/></g><g id="node27" class="node"><title>n222221</title><polygon fill="#add8e6" stroke="none" points="1509.7 -42 1454.3 -42 1454.3 0 1509.7 0 1509.7 -42"/><text x="1482" y="-30.8" font-family="Times,serif" font-size="14" text-anchor="middle">(N\Paren)</text><text x="1482" y="-16.8" font-family="Times,serif" font-size="14" text-anchor="middle">identity</text><text x="1482" y="-2.8" font-family="Times,serif" font-size="14" text-anchor="middle">)</text></g><g id="edge25" class="edge"><title>n22222-&gt;n222221</title><path fill="none" stroke="#000" d="M1482,-77.7C1482,-70.0864 1482,-60.9147 1482,-52.2311"/><polygon fill="#000" stroke="#000" points="1485.5 -52.018 1482 -42.019 1478.5 -52.019 1485.5 -52.018"/></g><g id="node28" class="node"><title>n222222</title><polygon fill="#add8e6" stroke="none" points="1582 -42 1528 -42 1528 0 1582 0 1582 -42"/><text x="1555" y="-30.8" font-family="Times,serif" font-size="14" text-anchor="middle">(X|X)</text><text x="1555" y="-16.8" font-family="Times,serif" font-size="14" text-anchor="middle">identity</text><text x="1555" y="-2.8" font-family="Times,serif" font-size="14" text-anchor="middle">?</text></g><g id="edge26" class="edge"><title>n22222-&gt;n222222</title><path fill="none" stroke="#000" d="M1499.3,-77.7C1507.83,-69.1661 1518.33,-58.6746 1527.89,-49.107"/><polygon fill="#000" stroke="#000" points="1530.39 -51.564 1534.98 -42.019 1525.44 -46.615 1530.39 -51.564"/></g><g id="node23" class="node"><title>n2222121</title><polygon fill="#add8e6" stroke="none" points="1098 -42 1044 -42 1044 0 1098 0 1098 -42"/><text x="1071" y="-30.8" font-family="Times,serif" font-size="14" text-anchor="middle">N</text><text x="1071" y="-16.8" font-family="Times,serif" font-size="14" text-anchor="middle">8</text><text x="1071" y="-2.8" font-family="Times,serif" font-size="14" text-anchor="middle">8</text></g><g id="edge21" class="edge"><title>n222212-&gt;n2222121</title><path fill="none" stroke="#000" d="M1071,-149.797C1071,-125.878 1071,-82.1893 1071,-52.6295"/><polygon fill="#000" stroke="#000" points="1074.5 -52.441 1071 -42.441 1067.5 -52.441 1074.5 -52.441"/></g><g id="node24" class="node"><title>n2222122</title><polygon fill="#add8e6" stroke="none" points="1309.91 -114 1170.09 -114 1170.09 -78 1309.91 -78 1309.91 -114"/><text x="1240" y="-98.8" font-family="Times,serif" font-size="14" text-anchor="middle">λ(x: Int =&gt; x.-(4))</text><text x="1240" y="-84.8" font-family="Times,serif" font-size="14" text-anchor="middle">(N\N)</text></g><g id="edge22" class="edge"><title>n222212-&gt;n2222122</title><path fill="none" stroke="#000" d="M1098.15,-155.753C1122.65,-145.605 1159.33,-130.413 1189.25,-118.019"/><polygon fill="#000" stroke="#000" points="1190.81 -121.164 1198.71 -114.104 1188.13 -114.697 1190.81 -121.164"/></g><g id="node25" class="node"><title>n22221221</title><polygon fill="#add8e6" stroke="none" points="1363.84 -42 1116.16 -42 1116.16 0 1363.84 0 1363.84 -42"/><text x="1240" y="-30.8" font-family="Times,serif" font-size="14" text-anchor="middle">((N\N)/N)</text><text x="1240" y="-16.8" font-family="Times,serif" font-size="14" text-anchor="middle">λ(y: Int =&gt; λ(x: Int =&gt; x.-(y)))</text><text x="1240" y="-2.8" font-family="Times,serif" font-size="14" text-anchor="middle">-</text></g><g id="edge23" class="edge"><title>n2222122-&gt;n22221221</title><path fill="none" stroke="#000" d="M1240,-77.7C1240,-70.0864 1240,-60.9147 1240,-52.2311"/><polygon fill="#000" stroke="#000" points="1243.5 -52.018 1240 -42.019 1236.5 -52.019 1243.5 -52.018"/></g><g id="node26" class="node"><title>n22221222</title><polygon fill="#add8e6" stroke="none" points="1436 -42 1382 -42 1382 0 1436 0 1436 -42"/><text x="1409" y="-30.8" font-family="Times,serif" font-size="14" text-anchor="middle">N</text><text x="1409" y="-16.8" font-family="Times,serif" font-size="14" text-anchor="middle">4</text><text x="1409" y="-2.8" font-family="Times,serif" font-size="14" text-anchor="middle">4</text></g><g id="edge24" class="edge"><title>n2222122-&gt;n22221222</title><path fill="none" stroke="#000" d="M1287.1,-77.917C1310.61,-69.0053 1339.55,-57.4629 1372.33,-42.093"/><polygon fill="#000" stroke="#000" points="1374.14 -45.107 1381.67 -37.655 1371.14 -38.784 1374.14 -45.107"/></g></g></svg>